<?xml version="1.0" encoding="UTF-8" standalone="no"?>
<!-- Created with Inkscape (http://www.inkscape.org/) -->

<svg
   xmlns:dc="http://purl.org/dc/elements/1.1/"
   xmlns:cc="http://creativecommons.org/ns#"
   xmlns:rdf="http://www.w3.org/1999/02/22-rdf-syntax-ns#"
   xmlns:svg="http://www.w3.org/2000/svg"
   xmlns="http://www.w3.org/2000/svg"
   xmlns:sodipodi="http://sodipodi.sourceforge.net/DTD/sodipodi-0.dtd"
   xmlns:inkscape="http://www.inkscape.org/namespaces/inkscape"
   width="482.41125"
   height="93.885803"
   id="svg2"
   version="1.1"
   inkscape:version="0.48.4 r9939"
   sodipodi:docname="emaro_logo - Copy.svg">
  <defs
     id="defs4" />
  <sodipodi:namedview
     id="base"
     pagecolor="#ffffff"
     bordercolor="#666666"
     borderopacity="1.0"
     inkscape:pageopacity="0.0"
     inkscape:pageshadow="2"
     inkscape:zoom="0.98994949"
     inkscape:cx="105.19594"
     inkscape:cy="176.06227"
     inkscape:document-units="px"
     inkscape:current-layer="layer1"
     showgrid="false"
     inkscape:window-width="1304"
     inkscape:window-height="745"
     inkscape:window-x="54"
     inkscape:window-y="-8"
     inkscape:window-maximized="1"
     fit-margin-top="0"
     fit-margin-left="0"
     fit-margin-right="0"
     fit-margin-bottom="0" />
  <metadata
     id="metadata7">
    <rdf:RDF>
      <cc:Work
         rdf:about="">
        <dc:format>image/svg+xml</dc:format>
        <dc:type
           rdf:resource="http://purl.org/dc/dcmitype/StillImage" />
        <dc:title />
      </cc:Work>
    </rdf:RDF>
  </metadata>
  <g
     inkscape:label="Layer 1"
     inkscape:groupmode="layer"
     id="layer1"
     transform="translate(-100.05458,-225.75188)">
    <path
       style="fill:#333333;stroke:none"
       d="M 11.051255,85.983295 C 8.2005843,85.627395 7.501751,83.791623 9.0107305,80.623031 9.6236103,79.336088 15.905778,71.854566 22.971103,63.997423 30.036428,56.140281 35.741505,49.348174 35.64905,48.903853 35.556596,48.459532 30.257988,42.334819 23.874366,35.29338 9.8942552,19.87265 8.6952373,18.301056 8.6952373,15.39757 l 0,-2.250883 18.3883067,-0.506462 C 43.519007,12.187547 45.624048,11.99415 46.904972,10.81916 52.259116,5.9078109 56.891582,5.2651962 60.55238,8.9259946 c 2.139195,2.1391944 2.428572,2.8711484 2.428572,6.1428574 0,3.271708 -0.289377,4.003663 -2.428572,6.142857 -3.704323,3.704324 -7.457763,3.301301 -12.348748,-1.325935 l -2.277321,-2.154515 -12.92885,0.339253 c -7.110868,0.186589 -13.23864,0.649042 -13.617272,1.027673 -0.905399,0.9054 0.446404,2.671119 12.172191,15.899273 11.909713,13.435646 12.122516,13.75875 10.654872,16.177554 -0.60752,1.001245 -5.744468,6.996066 -11.415441,13.321824 -12.515736,13.960837 -12.614432,14.091202 -11.298667,14.92453 0.543295,0.344086 19.068165,0.630536 41.166379,0.63655 l 40.178567,0.01094 0,-10.954945 c 0,-6.02522 0.21253,-21.127145 0.47227,-33.559832 0.43801,-20.965808 -0.86887,-21.725189 1.32082,-23.194471 0.72305,-0.932255 6.62466,2.156081 22.68869,17.002278 8.9224,8.245976 16.76432,14.992684 17.4265,14.992684 0.66218,0 8.32132,-7.071428 17.0203,-15.714286 14.5984,-14.504223 18.53958,-16.195566 19.44657,-15.669642 0,0 1.27791,0.255564 1.30882,0.758928 0.21224,3.455254 0.55793,13.660714 0.55793,13.660714 0.0165,0.403207 0.47078,18.964286 0.47341,24.464286 0.003,5.5 0.21379,14.098215 0.46925,19.107143 l 0.46447,9.107143 14.8228,0 14.8228,0 12.13562,-21.607143 c 16.9164,-30.119209 18.98042,-34.281324 18.42265,-37.149464 -1.55894,-8.016368 -1.46892,-8.913088 1.15868,-11.5406884 1.36161,-1.3616026 3.36423,-2.6986602 4.45027,-2.971239 2.67976,-0.6725792 6.45871,1.2206334 8.28793,4.1521664 1.46339,2.345257 1.5024,3.774873 0.2896,10.612011 -0.56968,3.211611 0.4912,5.3925 17.4195,35.810029 l 12.61255,22.662814 14.7101,0.01578 14.71011,0.01579 0.50907,-27.967307 0.50907,-27.967308 c 0,0 -1.10668,-1.714817 -2.81432,-2.925549 -3.61247,-2.56128 -5.33268,-7.193333 -3.32677,-11.4204706 1.30982,-2.7602335 4.40789,-4.4668846 7.46285,-4.4668846 1.71224,0 3.14502,0.5826864 5.96122,3.2224755 l 3.70725,3.4750137 11.42857,0.388949 c 15.85708,0.539667 17.39394,1.011469 23.67657,7.26852 4.14269,4.125822 5.32098,5.811161 6.25,8.939505 1.64814,5.549894 1.42724,9.153217 -1.01107,16.492327 -2.14899,6.468298 -2.15152,6.495311 -0.78781,8.403486 2.72661,3.815214 23.59766,23.700043 24.87548,23.700043 2.11629,0 12.42612,-7.465503 13.7652,-9.967588 0.39503,-0.73812 0.12046,-2.97324 -0.75154,-6.117968 -2.35159,-8.480543 -1.65026,-20.655928 1.5734,-27.315135 2.16887,-4.480293 7.87644,-11.023613 12.92774,-14.820743 7.13402,-5.362744 17.25115,-6.811295 17.25115,-6.811295 0,0 7.34245,-0.263909 10.92585,0.599076 2.73862,0.659539 7.76738,3.357006 7.76738,3.357006 7.27581,3.436979 14.00066,10.324024 17.46622,17.192938 l 2.62627,5.46021 1.26269,8.419777 c 0.15683,1.045788 -0.31144,10.30932 -2.70367,14.978336 -1.48009,2.888773 -4.67952,8.629136 -8.64341,12.525381 -8.94365,8.791029 -16.46237,11.719757 -27.53461,10.725407 -10.36915,-0.931207 -13.38099,-2.065493 -21.128,-7.956935 -2.77711,-2.111947 -5.66997,-3.834148 -6.42857,-3.827116 -0.7586,0.007 -5.03609,2.578458 -9.50554,5.714287 -4.46945,3.135821 -8.3987,5.7015 -8.73166,5.7015 -1.78015,0 -32.10305,-29.628014 -34.05424,-33.273844 -0.66118,-1.235438 -0.32251,-2.239673 2.09257,-6.204832 3.47823,-5.710676 4.17611,-8.461375 3.39708,-13.389488 -0.70201,-4.440886 -2.85791,-7.881327 -6.55877,-10.466637 -2.28218,-1.594269 -3.87052,-1.985352 -10.35714,-2.550158 -9.30207,-0.809952 -21.32896,-0.375864 -22.5189,0.812779 -0.62138,0.620703 -1.00642,9.14253 -1.40064,30.999816 -0.29903,16.579086 -0.70735,31.145643 -0.90739,32.370121 -0.33199,2.032214 -0.65138,2.265764 -3.66315,2.678572 -5.23886,0.718071 -32.34346,0.52515 -33.77387,-0.240379 -1.6389,-0.877114 -5.12041,-6.5181 -18.30836,-29.664521 -5.81971,-10.214286 -12.00848,-20.811828 -13.75281,-23.550093 l -3.17152,-4.978664 -1.86818,2.252619 c -1.0275,1.238941 -5.37164,8.461483 -9.65365,16.050093 -12.22737,21.669457 -20.43801,35.737045 -22.33172,38.261759 l -1.74123,2.321428 -16.92793,-0.0097 c -17.69164,-0.01021 -19.79597,-0.200507 -20.42797,-1.847486 -0.21152,-0.5512 -0.56844,-12.81417 -0.79316,-27.251044 -0.44716,-28.726819 -0.74391,-33.748899 -1.99419,-33.748899 -1.00067,0 -13.47748,12.608005 -19.69069,19.897738 -4.38172,5.140919 -4.46646,5.31906 -3.90721,8.214285 1.32265,6.847427 0.0525,10.841412 -4.13679,13.007757 -3.02088,1.562157 -6.176,0.853046 -9.41826,-2.116744 -2.82545,-2.58801 -3.22,-4.536613 -1.99012,-9.828828 0.43623,-1.877115 0.3137,-3.216885 -0.43571,-4.764248 -1.1278,-2.328672 -24.62201,-25.838531 -25.82132,-25.838531 -0.40052,0 -0.90328,0.283267 -1.11725,0.629483 -0.21398,0.346215 -0.72189,14.087286 -1.1287,30.535714 -0.40683,16.448427 -0.90045,30.422146 -1.09697,31.05271 -0.26903,0.863272 -1.70351,1.260279 -5.806934,1.607143 -5.737878,0.485029 -84.660659,0.4374 -88.592361,-0.05343 z M 445.98151,79.279509 c 17.43021,-3.634848 28.11206,-19.392605 24.57507,-36.252936 -1.28482,-6.124581 -3.63433,-10.458988 -8.40891,-15.512845 -4.50722,-4.770862 -9.76126,-7.371375 -16.7908,-8.310697 -10.67387,-1.426297 -19.84153,1.808789 -26.98209,9.521444 -5.78128,6.244472 -7.74198,10.905868 -8.10847,19.277188 -0.25384,5.798192 -0.073,7.37539 1.16696,10.178571 0.80705,1.824454 1.88721,3.313318 2.40038,3.308586 3.16948,-0.02923 15.60307,-9.647977 18.20807,-14.085945 2.4346,-4.147692 5.5419,-6.620335 8.31547,-6.617067 3.17799,0.0037 6.44173,2.211776 7.94178,5.372904 1.06988,2.254614 1.14413,3.124225 0.46135,5.403151 -1.33252,4.447582 -3.547,5.649846 -10.40653,5.649846 l -5.86308,0 -4.93345,3.481541 c -6.60354,4.660121 -8.86202,6.867458 -8.86202,8.661316 0,4.102198 12.54773,10.5195 20.8577,10.667279 1.45388,0.02586 4.34673,-0.3082 6.42857,-0.742336 z M 146.55238,60.068852 c 3.10022,-3.100223 1.18354,-8.142857 -3.09506,-8.142857 -3.33955,0 -5.47637,1.95047 -5.47637,4.998774 0,4.159801 5.52799,6.187522 8.57143,3.144083 z m 296.03371,-7.128516 c 4.80082,-1.825269 3.55524,-7.871484 -1.6216,-7.871484 -3.40974,0 -4.41211,1.011343 -4.41211,4.451588 0,2.17109 0.33244,2.870928 1.60714,3.383296 2.11953,0.851944 2.27859,0.853259 4.42657,0.0366 z M 58.695238,17.925995 c 1.716152,-1.716153 1.813194,-3.418723 0.31664,-5.555353 -2.244902,-3.2050463 -8.173783,-1.337914 -8.173783,2.5741 0,4.014566 4.946839,5.891556 7.857143,2.981253 z M 252.29725,18.62391 c 3.54739,-1.8985 3.02259,-6.656158 -0.82749,-7.501776 -2.79239,-0.613312 -4.55425,0.08159 -5.50666,2.171903 -1.87563,4.116563 2.19739,7.543804 6.33415,5.329873 z m 69.79085,-1.291391 c 1.23965,-1.538553 0.86534,-5.22088 -0.20332,-6.569917 -3.67197,-2.2761231 -5.20841,-1.0273718 -6.83276,0.442652 -2.44861,2.215954 -1.26957,6.003272 2.27945,7.322099 1.99825,0.74256 3.49945,0.365471 4.75663,-1.194834 z"
       id="path2997"
       inkscape:connector-curvature="0"
       transform="translate(100.05458,225.75188)"
       sodipodi:nodetypes="cssssscsssssscssssssscsscsssssscscccssssssscccccsssscsssssssssscssscssssscsssssssssssssscssscssssssssssscscsccssssssssscssscsssssssscssscssssssssscsss" />
  </g>
</svg>
