<?xml version="1.0" encoding="UTF-8" standalone="no"?>
<!-- Created with Inkscape (http://www.inkscape.org/) -->

<svg
   xmlns:dc="http://purl.org/dc/elements/1.1/"
   xmlns:cc="http://creativecommons.org/ns#"
   xmlns:rdf="http://www.w3.org/1999/02/22-rdf-syntax-ns#"
   xmlns:svg="http://www.w3.org/2000/svg"
   xmlns="http://www.w3.org/2000/svg"
   xmlns:sodipodi="http://sodipodi.sourceforge.net/DTD/sodipodi-0.dtd"
   xmlns:inkscape="http://www.inkscape.org/namespaces/inkscape"
   width="482"
   height="482"
   id="svg2"
   version="1.1"
   inkscape:version="0.48.4 r9939"
   sodipodi:docname="emaroLab_logo_slim2.svg">
  <defs
     id="defs4" />
  <sodipodi:namedview
     id="base"
     pagecolor="#ffffff"
     bordercolor="#666666"
     borderopacity="1.0"
     inkscape:pageopacity="0.0"
     inkscape:pageshadow="2"
     inkscape:zoom="0.98994949"
     inkscape:cx="422.33567"
     inkscape:cy="161.22246"
     inkscape:document-units="px"
     inkscape:current-layer="layer1"
     showgrid="false"
     inkscape:window-width="1208"
     inkscape:window-height="926"
     inkscape:window-x="341"
     inkscape:window-y="183"
     inkscape:window-maximized="0"
     fit-margin-top="0"
     fit-margin-left="0"
     fit-margin-right="0"
     fit-margin-bottom="0"
     units="px" />
  <metadata
     id="metadata7">
    <rdf:RDF>
      <cc:Work
         rdf:about="">
        <dc:format>image/svg+xml</dc:format>
        <dc:type
           rdf:resource="http://purl.org/dc/dcmitype/StillImage" />
        <dc:title></dc:title>
      </cc:Work>
    </rdf:RDF>
  </metadata>
  <g
     inkscape:label="Layer 1"
     inkscape:groupmode="layer"
     id="layer1"
     transform="translate(-100.05458,162.36233)">
    <path
       style="fill:#333333;stroke:none"
       d="m 108.09568,15.598038 c -2.85067,-0.3559 -3.5495,-2.191672 -2.04052,-5.360264 0.61288,-1.2869434 6.89505,-8.768465 13.96037,-16.625608 7.06533,-7.857142 12.7704,-14.649249 12.67795,-15.09357 -0.0925,-0.444321 -5.39106,-6.569034 -11.77469,-13.610473 -13.98011,-15.42073 -15.17913,-16.992324 -15.17913,-19.89581 l 0,-2.250883 18.38831,-0.506462 c 16.43546,-0.452678 18.54051,-0.646075 19.82143,-1.821065 5.35414,-4.91135 9.98661,-5.553964 13.64741,-1.893166 2.13919,2.139195 2.42857,2.871149 2.42857,6.142858 0,3.271708 -0.28938,4.003663 -2.42857,6.142857 -3.70433,3.704324 -7.45777,3.301301 -12.34875,-1.325935 l -2.27732,-2.154515 -12.92885,0.339253 c -7.11087,0.186589 -13.23864,0.649042 -13.61727,1.027673 -0.9054,0.9054 0.4464,2.671119 12.17219,15.899273 11.90971,13.435646 12.12251,13.75875 10.65487,16.177554 -0.60752,1.001245 -5.74447,6.996066 -11.41544,13.321824 -12.51574,13.9608366 -12.61443,14.0912016 -11.29867,14.9245296 0.5433,0.344086 19.06817,0.630536 41.16638,0.63655 l 40.17857,0.01094 0,-10.9549446 c 0,-6.02522 0.21253,-21.127145 0.47227,-33.559832 0.43801,-20.965808 -0.86887,-21.725189 1.32082,-23.194471 0.72305,-0.932255 6.62466,2.156081 22.68869,17.002278 8.9224,8.245976 16.76432,14.992684 17.4265,14.992684 0.66218,0 8.32132,-7.071428 17.0203,-15.714286 14.5984,-14.504223 18.53958,-16.195566 19.44657,-15.669642 0,0 1.27791,0.255564 1.30882,0.758928 0.21224,3.455254 0.55793,13.660714 0.55793,13.660714 0.0165,0.403207 0.47078,18.964286 0.47341,24.464286 0.003,5.5 0.21379,14.098215 0.46925,19.107143 l 0.46447,9.1071426 14.8228,0 14.8228,0 12.13562,-21.6071426 c 16.9164,-30.119209 18.98042,-34.281324 18.42265,-37.149464 -1.55894,-8.016368 -1.46892,-8.913088 1.15868,-11.540689 1.36161,-1.361602 3.36423,-2.69866 4.45027,-2.971239 2.67976,-0.672579 6.45871,1.220634 8.28793,4.152167 1.46339,2.345257 1.5024,3.774873 0.2896,10.612011 -0.56968,3.211611 0.4912,5.3925 17.4195,35.810029 l 12.61255,22.6628136 14.7101,0.01578 14.71011,0.01579 0.50907,-27.9673066 0.50907,-27.967308 c 0,0 -1.10668,-1.714817 -2.81432,-2.925549 -3.61247,-2.56128 -5.33268,-7.193333 -3.32677,-11.420471 1.30982,-2.760234 4.40789,-4.466885 7.46285,-4.466885 1.71224,0 3.14502,0.582687 5.96122,3.222476 l 3.70725,3.475014 11.42857,0.388949 c 15.85708,0.539667 17.39394,1.011469 23.67657,7.26852 4.14269,4.125822 5.32098,5.811161 6.25,8.939505 1.64814,5.549894 1.42724,9.153217 -1.01107,16.492327 -2.14899,6.468298 -2.15152,6.495311 -0.78781,8.403486 2.72661,3.815214 23.59766,23.7000426 24.87548,23.7000426 2.11629,0 12.42612,-7.4655026 13.7652,-9.9675876 0.39503,-0.73812 0.12046,-2.97324 -0.75154,-6.117968 -2.35159,-8.480543 -1.65026,-20.655928 1.5734,-27.315135 2.16887,-4.480293 7.87644,-11.023613 12.92774,-14.820743 7.13402,-5.362744 17.25115,-6.811295 17.25115,-6.811295 0,0 7.34245,-0.263909 10.92585,0.599076 2.73862,0.659539 7.76738,3.357006 7.76738,3.357006 7.27581,3.436979 14.00066,10.324024 17.46622,17.192938 l 2.62627,5.46021 1.26269,8.419777 c 0.15683,1.045788 -0.31144,10.30932 -2.70367,14.978336 -1.48009,2.888773 -4.67952,8.629136 -8.64341,12.525381 -8.94365,8.791029 -16.46237,11.719757 -27.53461,10.725407 -10.36915,-0.931207 -13.38099,-2.065493 -21.128,-7.9569354 -2.77711,-2.1119466 -5.66997,-3.8341476 -6.42857,-3.8271156 -0.7586,0.007 -5.03609,2.578458 -9.50554,5.7142866 -4.46945,3.1358214 -8.3987,5.7015004 -8.73166,5.7015004 -1.78015,0 -32.10305,-29.628014 -34.05424,-33.273844 -0.66118,-1.235438 -0.32251,-2.239673 2.09257,-6.204832 3.47823,-5.710676 4.17611,-8.461375 3.39708,-13.389488 -0.70201,-4.440886 -2.85791,-7.881327 -6.55877,-10.466637 -2.28218,-1.594269 -3.87052,-1.985352 -10.35714,-2.550158 -9.30207,-0.809952 -21.32896,-0.375864 -22.5189,0.812779 -0.62138,0.620703 -1.00642,9.14253 -1.40064,30.999816 -0.29903,16.579086 -0.70735,31.145643 -0.90739,32.370121 -0.33199,2.032214 -0.65138,2.265764 -3.66315,2.678572 -5.23886,0.718071 -32.34346,0.52515 -33.77387,-0.240379 -1.6389,-0.877114 -5.12041,-6.5181004 -18.30836,-29.664521 -5.81971,-10.214286 -12.00848,-20.811828 -13.75281,-23.550093 l -3.17152,-4.978664 -1.86818,2.252619 c -1.0275,1.238941 -5.37164,8.461483 -9.65365,16.050093 -12.22737,21.669457 -20.43801,35.737045 -22.33172,38.261759 l -1.74123,2.321428 -16.92793,-0.0097 c -17.69164,-0.01021 -19.79597,-0.200507 -20.42797,-1.847486 -0.21152,-0.5512 -0.56844,-12.81417 -0.79316,-27.251044 -0.44716,-28.726819 -0.74391,-33.748899 -1.99419,-33.748899 -1.00067,0 -13.47748,12.608005 -19.69069,19.897738 -4.38172,5.140919 -4.46646,5.31906 -3.90721,8.214285 1.32265,6.847427 0.0525,10.841412 -4.13679,13.007757 -3.02088,1.562157 -6.176,0.853046 -9.41826,-2.116744 -2.82545,-2.58801 -3.22,-4.536613 -1.99012,-9.828828 0.43623,-1.877115 0.3137,-3.216885 -0.43571,-4.764248 -1.1278,-2.328672 -24.62201,-25.838531 -25.82132,-25.838531 -0.40052,0 -0.90328,0.283267 -1.11725,0.629483 -0.21398,0.346215 -0.72189,14.087286 -1.1287,30.535714 -0.40683,16.448427 -0.90045,30.422146 -1.09697,31.05271 -0.26903,0.863272 -1.70351,1.260279 -5.80694,1.607143 -5.73787,0.485029 -84.66066,0.4374 -88.59236,-0.05343 z M 543.02594,8.8942516 C 560.45615,5.259404 571.138,-10.498353 567.60101,-27.358684 c -1.28482,-6.124581 -3.63433,-10.458988 -8.40891,-15.512845 -4.50722,-4.770862 -9.76126,-7.371375 -16.7908,-8.310697 -10.67387,-1.426297 -19.84153,1.808789 -26.98209,9.521444 -5.78128,6.244472 -7.74198,10.905868 -8.10847,19.277188 -0.25384,5.798192 -0.073,7.37539 1.16696,10.178571 0.80705,1.824454 1.88721,3.313318 2.40038,3.308586 3.16948,-0.02923 15.60307,-9.647977 18.20807,-14.085945 2.4346,-4.147692 5.5419,-6.620335 8.31547,-6.617067 3.17799,0.0037 6.44173,2.211776 7.94178,5.372904 1.06988,2.254614 1.14413,3.124225 0.46135,5.403151 -1.33252,4.447582 -3.547,5.649846 -10.40653,5.649846 l -5.86308,0 -4.93345,3.481541 c -6.60354,4.660121 -8.86202,6.867458 -8.86202,8.661316 0,4.102198 12.54773,10.5194996 20.8577,10.6672786 1.45388,0.02586 4.34673,-0.3082 6.42857,-0.742336 z M 243.59681,-10.316405 c 3.10022,-3.100223 1.18354,-8.142857 -3.09506,-8.142857 -3.33955,0 -5.47637,1.95047 -5.47637,4.998774 0,4.159801 5.52799,6.187522 8.57143,3.144083 z m 296.03371,-7.128516 c 4.80082,-1.825269 3.55524,-7.871484 -1.6216,-7.871484 -3.40974,0 -4.41211,1.011343 -4.41211,4.451588 0,2.17109 0.33244,2.870928 1.60714,3.383296 2.11953,0.851944 2.27859,0.853259 4.42657,0.0366 z M 155.73967,-52.459262 c 1.71615,-1.716153 1.81319,-3.418723 0.31664,-5.555353 -2.24491,-3.205047 -8.17379,-1.337914 -8.17379,2.5741 0,4.014566 4.94684,5.891556 7.85715,2.981253 z m 193.60201,0.697915 c 3.54739,-1.8985 3.02259,-6.656158 -0.82749,-7.501776 -2.79239,-0.613312 -4.55425,0.08159 -5.50666,2.171903 -1.87563,4.116563 2.19739,7.543804 6.33415,5.329873 z m 69.79085,-1.291391 c 1.23965,-1.538553 0.86534,-5.22088 -0.20332,-6.569917 -3.67197,-2.276124 -5.20841,-1.027372 -6.83276,0.442652 -2.44861,2.215954 -1.26957,6.003272 2.27945,7.322099 1.99825,0.74256 3.49945,0.365471 4.75663,-1.194834 z"
       id="path2997"
       inkscape:connector-curvature="0"
       sodipodi:nodetypes="cssssscsssssscssssssscsscsssssscscccssssssscccccsssscsssssssssscssscssssscsssssssssssssscssscssssssssssscscsccssssssssscssscsssssssscssscssssssssscsss" />
    <path
       style="fill:#aa0000;stroke:none"
       d="m 119.00096,84.006997 c -2.11941,2.458523 -7.80829,-8.24288 -7.5199,-14.472582 0.23192,-5.00979 2.51507,-8.965492 5.61714,-11.477437 3.30157,-2.673499 16.93873,-3.100348 20.89059,2.154483 7.09431,8.689622 3.99876,22.869972 -6.90451,25.606092 -1.41062,30.100767 -0.63199,65.003167 -0.99458,100.609067 l 0.9214,18.06634 29.40478,0 93.07792,0 24.07409,-42.86326 c 33.55797,-59.74911 37.65248,-68.005705 36.54601,-73.695387 -3.09256,-15.902511 -2.91398,-17.681382 2.29853,-22.893902 2.7011,-2.701078 6.67381,-5.353479 8.82825,-5.89421 5.31598,-1.334233 12.81249,2.421428 16.44121,8.236884 2.903,4.652411 2.98039,7.488421 0.5745,21.051631 -1.13011,6.371038 0.97441,10.697394 34.55599,71.038284 l 25.02021,44.95744 29.18121,0.0313 29.18125,0.0313 1.00988,-55.48027 1.00986,-55.480239 c 0,0 -2.19538,-3.401775 -5.58292,-5.803566 -7.16625,-5.080961 -10.57872,-14.269821 -6.5995,-22.655411 2.59837,-5.475643 8.74418,-8.861217 14.80447,-8.861217 3.39666,0 6.23894,1.155913 11.82559,6.392614 l 7.35427,6.893566 22.67149,0.771575 c 31.45654,1.070581 34.28085,3.107017 47.68277,12.633251 6.10628,4.340413 11.31465,11.242023 12.57703,18.626617 1.50263,8.78998 -0.62872,17.84741 -6.75534,25.88551 -3.7421,4.90963 -10.21072,10.37071 -12.75079,15.09395 3.63772,5.9782 9.35073,9.98257 14.57381,16.59528 7.33233,9.28314 12.99302,21.76109 11.66725,33.51618 -1.07425,9.52495 -4.49068,20.88528 -15.26515,24.36971 -0.88812,1.66822 -45.32438,0.68307 -55.1595,0.42227 -3.78786,-0.10043 -3.54153,-8.16504 -1.66556,-13.3996 7.76883,-0.23457 45.80735,0.92215 48.23643,0.7256 1.41533,-0.11454 5.35881,-0.40391 6.13093,-1.71934 8.78909,-11.5608 5.33579,-24.59466 -2.43017,-33.8963 -7.99687,-9.57822 -22.12494,-21.73046 -25.66398,-27.25052 -1.16876,-2.18383 11.08131,-10.31428 15.84947,-14.57255 5.646,-5.04224 10.16755,-12.94124 9.76944,-20.50054 -0.37071,-7.039101 -5.36102,-13.869352 -11.05196,-18.028628 -5.69446,-4.16185 -13.52994,-4.335996 -20.54601,-5.058887 -14.82189,-1.527151 -42.31142,-0.745615 -44.67198,1.612361 -1.23266,1.231306 -1.99648,18.136534 -2.77852,61.495994 -0.5932,32.88884 -1.4032,61.78529 -1.80003,64.21437 -0.65859,4.03141 -1.29218,4.49472 -7.2668,5.31361 -10.3926,1.42448 -64.16147,1.04177 -66.99905,-0.47685 -3.25118,-1.73997 -10.15763,-12.93031 -36.31929,-58.8471 -11.54487,-20.26264 -23.82187,-41.28555 -27.28218,-46.71761 l -6.29153,-9.87643 -3.706,4.46864 c -2.03831,2.45776 -10.65602,16.7855 -19.15048,31.83943 -24.25608,42.98689 -40.54399,70.8935 -44.30064,75.90193 l -3.45417,4.60515 -97.25398,-0.0199 c -35.09586,-0.008 -40.6989,1.03081 -41.95264,-2.2364 -1.68211,-45.40619 0.72278,-84.8165 0.34144,-130.982351 z m 13.96235,-7.819763 c 3.40441,-3.404417 3.59691,-6.7819 0.62812,-11.020446 -4.45334,-6.358032 -16.21479,-2.654083 -16.21479,5.106382 0,7.963916 9.81332,11.687412 15.58667,5.914064 z m 200.20702,6.414095 c 7.03714,-3.766156 5.99608,-13.204178 -1.64154,-14.881683 -5.53941,-1.216659 -9.03451,0.161867 -10.92386,4.308539 -3.72078,8.166236 4.35908,14.965041 12.5654,10.573144 z m 138.44789,-2.561797 c 2.45916,-3.052133 1.71662,-10.356946 -0.40334,-13.033102 -7.28429,-4.515273 -10.3322,-2.038051 -13.55451,0.878097 -4.85745,4.395924 -2.51852,11.909023 4.52187,14.525255 3.96404,1.473056 6.94204,0.725004 9.43598,-2.37025 z"
       id="path2997-1"
       inkscape:connector-curvature="0"
       sodipodi:nodetypes="sssccccccssssssscccccsssscsaascsacscscscsaaassssssscssscsccssssssssssssss" />
  </g>
</svg>
