<?xml version="1.0" encoding="UTF-8" standalone="no"?>
<!-- Created with Inkscape (http://www.inkscape.org/) -->

<svg
   xmlns:dc="http://purl.org/dc/elements/1.1/"
   xmlns:cc="http://creativecommons.org/ns#"
   xmlns:rdf="http://www.w3.org/1999/02/22-rdf-syntax-ns#"
   xmlns:svg="http://www.w3.org/2000/svg"
   xmlns="http://www.w3.org/2000/svg"
   xmlns:xlink="http://www.w3.org/1999/xlink"
   xmlns:sodipodi="http://sodipodi.sourceforge.net/DTD/sodipodi-0.dtd"
   xmlns:inkscape="http://www.inkscape.org/namespaces/inkscape"
   width="744.83716"
   height="92.402031"
   id="svg2"
   version="1.1"
   inkscape:version="0.48.4 r9939"
   sodipodi:docname="emaroLab_oneline.svg"
   inkscape:export-filename="/home/francescow/git/EmaroLab/docs/img/emarolab-logo/emaroLab_oneline.png"
   inkscape:export-xdpi="90"
   inkscape:export-ydpi="90">
  <defs
     id="defs4" />
  <sodipodi:namedview
     id="base"
     pagecolor="#ffffff"
     bordercolor="#666666"
     borderopacity="1.0"
     inkscape:pageopacity="0.0"
     inkscape:pageshadow="2"
     inkscape:zoom="0.7"
     inkscape:cx="550.31576"
     inkscape:cy="-248.53177"
     inkscape:document-units="px"
     inkscape:current-layer="layer1"
     showgrid="false"
     inkscape:window-width="1208"
     inkscape:window-height="926"
     inkscape:window-x="341"
     inkscape:window-y="183"
     inkscape:window-maximized="0"
     fit-margin-top="0"
     fit-margin-left="0"
     fit-margin-right="0"
     fit-margin-bottom="0"
     units="px" />
  <metadata
     id="metadata7">
    <rdf:RDF>
      <cc:Work
         rdf:about="">
        <dc:format>image/svg+xml</dc:format>
        <dc:type
           rdf:resource="http://purl.org/dc/dcmitype/StillImage" />
        <dc:title></dc:title>
      </cc:Work>
    </rdf:RDF>
  </metadata>
  <g
     inkscape:label="Layer 1"
     inkscape:groupmode="layer"
     id="layer1"
     transform="translate(-105.2794,70.741039)">
    <path
       style="fill:#333333;stroke:none"
       d="m 108.09568,15.598038 c -2.85067,-0.3559 -3.5495,-2.191672 -2.04052,-5.360264 0.61288,-1.2869434 6.89505,-8.768465 13.96037,-16.625608 7.06533,-7.857142 12.7704,-14.649249 12.67795,-15.09357 -0.0925,-0.444321 -5.39106,-6.569034 -11.77469,-13.610473 -13.98011,-15.42073 -15.17913,-16.992324 -15.17913,-19.89581 l 0,-2.250883 18.38831,-0.506462 c 16.43546,-0.452678 18.54051,-0.646075 19.82143,-1.821065 5.35414,-4.91135 9.98661,-5.553964 13.64741,-1.893166 2.13919,2.139195 2.42857,2.871149 2.42857,6.142858 0,3.271708 -0.28938,4.003663 -2.42857,6.142857 -3.70433,3.704324 -7.45777,3.301301 -12.34875,-1.325935 l -2.27732,-2.154515 -12.92885,0.339253 c -7.11087,0.186589 -13.23864,0.649042 -13.61727,1.027673 -0.9054,0.9054 0.4464,2.671119 12.17219,15.899273 11.90971,13.435646 12.12251,13.75875 10.65487,16.177554 -0.60752,1.001245 -5.74447,6.996066 -11.41544,13.321824 -12.51574,13.9608366 -12.61443,14.0912016 -11.29867,14.9245296 0.5433,0.344086 19.06817,0.630536 41.16638,0.63655 l 40.17857,0.01094 0,-10.9549446 c 0,-6.02522 0.21253,-21.127145 0.47227,-33.559832 0.43801,-20.965808 -0.86887,-21.725189 1.32082,-23.194471 0.72305,-0.932255 6.62466,2.156081 22.68869,17.002278 8.9224,8.245976 16.76432,14.992684 17.4265,14.992684 0.66218,0 8.32132,-7.071428 17.0203,-15.714286 14.5984,-14.504223 18.53958,-16.195566 19.44657,-15.669642 0,0 1.27791,0.255564 1.30882,0.758928 0.21224,3.455254 0.55793,13.660714 0.55793,13.660714 0.0165,0.403207 0.47078,18.964286 0.47341,24.464286 0.003,5.5 0.21379,14.098215 0.46925,19.107143 l 0.46447,9.1071426 14.8228,0 14.8228,0 12.13562,-21.6071426 c 16.9164,-30.119209 18.98042,-34.281324 18.42265,-37.149464 -1.55894,-8.016368 -1.46892,-8.913088 1.15868,-11.540689 1.36161,-1.361602 3.36423,-2.69866 4.45027,-2.971239 2.67976,-0.672579 6.45871,1.220634 8.28793,4.152167 1.46339,2.345257 1.5024,3.774873 0.2896,10.612011 -0.56968,3.211611 0.4912,5.3925 17.4195,35.810029 l 12.61255,22.6628136 14.7101,0.01578 14.71011,0.01579 0.50907,-27.9673066 0.50907,-27.967308 c 0,0 -1.10668,-1.714817 -2.81432,-2.925549 -3.61247,-2.56128 -5.33268,-7.193333 -3.32677,-11.420471 1.30982,-2.760234 4.40789,-4.466885 7.46285,-4.466885 1.71224,0 3.14502,0.582687 5.96122,3.222476 l 3.70725,3.475014 11.42857,0.388949 c 15.85708,0.539667 17.39394,1.011469 23.67657,7.26852 4.14269,4.125822 5.32098,5.811161 6.25,8.939505 1.64814,5.549894 1.42724,9.153217 -1.01107,16.492327 -2.14899,6.468298 -2.15152,6.495311 -0.78781,8.403486 2.72661,3.815214 23.59766,23.7000426 24.87548,23.7000426 2.11629,0 12.42612,-7.4655026 13.7652,-9.9675876 0.39503,-0.73812 0.12046,-2.97324 -0.75154,-6.117968 -2.35159,-8.480543 -1.65026,-20.655928 1.5734,-27.315135 2.16887,-4.480293 7.87644,-11.023613 12.92774,-14.820743 7.13402,-5.362744 17.25115,-6.811295 17.25115,-6.811295 0,0 7.34245,-0.263909 10.92585,0.599076 2.73862,0.659539 7.76738,3.357006 7.76738,3.357006 7.27581,3.436979 14.00066,10.324024 17.46622,17.192938 l 2.62627,5.46021 1.26269,8.419777 c 0.15683,1.045788 -0.31144,10.30932 -2.70367,14.978336 -1.48009,2.888773 -4.67952,8.629136 -8.64341,12.525381 -8.94365,8.791029 -16.46237,11.719757 -27.53461,10.725407 -10.36915,-0.931207 -13.38099,-2.065493 -21.128,-7.9569354 -2.77711,-2.1119466 -5.66997,-3.8341476 -6.42857,-3.8271156 -0.7586,0.007 -5.03609,2.578458 -9.50554,5.7142866 -4.46945,3.1358214 -8.3987,5.7015004 -8.73166,5.7015004 -1.78015,0 -32.10305,-29.628014 -34.05424,-33.273844 -0.66118,-1.235438 -0.32251,-2.239673 2.09257,-6.204832 3.47823,-5.710676 4.17611,-8.461375 3.39708,-13.389488 -0.70201,-4.440886 -2.85791,-7.881327 -6.55877,-10.466637 -2.28218,-1.594269 -3.87052,-1.985352 -10.35714,-2.550158 -9.30207,-0.809952 -21.32896,-0.375864 -22.5189,0.812779 -0.62138,0.620703 -1.00642,9.14253 -1.40064,30.999816 -0.29903,16.579086 -0.70735,31.145643 -0.90739,32.370121 -0.33199,2.032214 -0.65138,2.265764 -3.66315,2.678572 -5.23886,0.718071 -32.34346,0.52515 -33.77387,-0.240379 -1.6389,-0.877114 -5.12041,-6.5181004 -18.30836,-29.664521 -5.81971,-10.214286 -12.00848,-20.811828 -13.75281,-23.550093 l -3.17152,-4.978664 -1.86818,2.252619 c -1.0275,1.238941 -5.37164,8.461483 -9.65365,16.050093 -12.22737,21.669457 -20.43801,35.737045 -22.33172,38.261759 l -1.74123,2.321428 -16.92793,-0.0097 c -17.69164,-0.01021 -19.79597,-0.200507 -20.42797,-1.847486 -0.21152,-0.5512 -0.56844,-12.81417 -0.79316,-27.251044 -0.44716,-28.726819 -0.74391,-33.748899 -1.99419,-33.748899 -1.00067,0 -13.47748,12.608005 -19.69069,19.897738 -4.38172,5.140919 -4.46646,5.31906 -3.90721,8.214285 1.32265,6.847427 0.0525,10.841412 -4.13679,13.007757 -3.02088,1.562157 -6.176,0.853046 -9.41826,-2.116744 -2.82545,-2.58801 -3.22,-4.536613 -1.99012,-9.828828 0.43623,-1.877115 0.3137,-3.216885 -0.43571,-4.764248 -1.1278,-2.328672 -24.62201,-25.838531 -25.82132,-25.838531 -0.40052,0 -0.90328,0.283267 -1.11725,0.629483 -0.21398,0.346215 -0.72189,14.087286 -1.1287,30.535714 -0.40683,16.448427 -0.90045,30.422146 -1.09697,31.05271 -0.26903,0.863272 -1.70351,1.260279 -5.80694,1.607143 -5.73787,0.485029 -84.66066,0.4374 -88.59236,-0.05343 z M 543.02594,8.8942516 C 560.45615,5.259404 571.138,-10.498353 567.60101,-27.358684 c -1.28482,-6.124581 -3.63433,-10.458988 -8.40891,-15.512845 -4.50722,-4.770862 -9.76126,-7.371375 -16.7908,-8.310697 -10.67387,-1.426297 -19.84153,1.808789 -26.98209,9.521444 -5.78128,6.244472 -7.74198,10.905868 -8.10847,19.277188 -0.25384,5.798192 -0.073,7.37539 1.16696,10.178571 0.80705,1.824454 1.88721,3.313318 2.40038,3.308586 3.16948,-0.02923 15.60307,-9.647977 18.20807,-14.085945 2.4346,-4.147692 5.5419,-6.620335 8.31547,-6.617067 3.17799,0.0037 6.44173,2.211776 7.94178,5.372904 1.06988,2.254614 1.14413,3.124225 0.46135,5.403151 -1.33252,4.447582 -3.547,5.649846 -10.40653,5.649846 l -5.86308,0 -4.93345,3.481541 c -6.60354,4.660121 -8.86202,6.867458 -8.86202,8.661316 0,4.102198 12.54773,10.5194996 20.8577,10.6672786 1.45388,0.02586 4.34673,-0.3082 6.42857,-0.742336 z M 243.59681,-10.316405 c 3.10022,-3.100223 1.18354,-8.142857 -3.09506,-8.142857 -3.33955,0 -5.47637,1.95047 -5.47637,4.998774 0,4.159801 5.52799,6.187522 8.57143,3.144083 z m 296.03371,-7.128516 c 4.80082,-1.825269 3.55524,-7.871484 -1.6216,-7.871484 -3.40974,0 -4.41211,1.011343 -4.41211,4.451588 0,2.17109 0.33244,2.870928 1.60714,3.383296 2.11953,0.851944 2.27859,0.853259 4.42657,0.0366 z M 155.73967,-52.459262 c 1.71615,-1.716153 1.81319,-3.418723 0.31664,-5.555353 -2.24491,-3.205047 -8.17379,-1.337914 -8.17379,2.5741 0,4.014566 4.94684,5.891556 7.85715,2.981253 z m 193.60201,0.697915 c 3.54739,-1.8985 3.02259,-6.656158 -0.82749,-7.501776 -2.79239,-0.613312 -4.55425,0.08159 -5.50666,2.171903 -1.87563,4.116563 2.19739,7.543804 6.33415,5.329873 z m 69.79085,-1.291391 c 1.23965,-1.538553 0.86534,-5.22088 -0.20332,-6.569917 -3.67197,-2.276124 -5.20841,-1.027372 -6.83276,0.442652 -2.44861,2.215954 -1.26957,6.003272 2.27945,7.322099 1.99825,0.74256 3.49945,0.365471 4.75663,-1.194834 z"
       id="path2997"
       inkscape:connector-curvature="0"
       sodipodi:nodetypes="cssssscsssssscssssssscsscsssssscscccssssssscccccsssscsssssssssscssscssssscsssssssssssssscssscssssssssssscscsccssssssssscssscsssssssscssscssssssssscsss" />
    <path
       sodipodi:type="inkscape:offset"
       inkscape:radius="1.1489298"
       inkscape:original="M 600.28125 -69.5625 C 597.87804 -69.682746 595.51293 -69.244327 594.59375 -68.5 C 592.86647 -67.101306 591.59788 -64.914541 591.46875 -62.125 C 591.30816 -58.656198 594.47613 -52.693552 595.65625 -54.0625 C 595.86859 -28.356559 594.53213 -6.4079478 595.46875 18.875 C 596.16686 20.694239 599.30178 20.1205 618.84375 20.125 L 673 20.125 L 674.90625 17.5625 C 676.99802 14.77372 686.05629 -0.7516581 699.5625 -24.6875 C 704.29236 -33.069788 709.11504 -41.068977 710.25 -42.4375 L 712.3125 -44.90625 L 715.8125 -39.40625 C 717.73926 -36.381586 724.57162 -24.688837 731 -13.40625 C 745.56726 12.161011 749.40844 18.406154 751.21875 19.375 C 752.79876 20.220594 782.74446 20.418175 788.53125 19.625 C 791.85802 19.169028 792.19579 18.901009 792.5625 16.65625 C 792.78346 15.303696 793.23219 -0.7806769 793.5625 -19.09375 C 793.99796 -43.237045 794.43863 -52.658138 795.125 -53.34375 C 796.4394 -54.656712 811.74689 -55.069095 820 -54.21875 C 823.90663 -53.816232 828.26671 -53.72364 831.4375 -51.40625 C 834.60629 -49.090294 837.38734 -45.294493 837.59375 -41.375 C 837.81543 -37.165852 835.30003 -32.776356 832.15625 -29.96875 C 829.50123 -27.597672 822.66175 -23.059743 823.3125 -21.84375 C 825.28313 -18.770085 833.17219 -11.989568 837.625 -6.65625 C 841.94925 -1.4769362 843.86267 5.7814964 838.96875 12.21875 C 838.53882 12.951203 836.35063 13.09248 835.5625 13.15625 C 834.20999 13.265692 813.01331 12.619388 808.6875 12.75 C 807.64292 15.664693 807.51585 20.16283 809.625 20.21875 C 815.10136 20.363969 839.84925 20.897644 840.34375 19.96875 C 846.34312 18.02856 848.24561 11.709906 848.84375 6.40625 C 849.58197 -0.1391865 846.4265 -7.0809868 842.34375 -12.25 C 839.43543 -15.93207 836.24428 -18.171235 834.21875 -21.5 C 835.63307 -24.129981 839.22883 -27.172484 841.3125 -29.90625 C 844.7239 -34.382002 845.93042 -39.418088 845.09375 -44.3125 C 844.39082 -48.42437 841.49378 -52.270684 838.09375 -54.6875 C 830.63128 -59.991868 829.04678 -61.12263 811.53125 -61.71875 L 798.90625 -62.15625 L 794.8125 -65.96875 C 791.70176 -68.884629 790.11006 -69.53125 788.21875 -69.53125 C 784.84427 -69.53125 781.44682 -67.64269 780 -64.59375 C 777.7843 -59.92451 779.66597 -54.829167 783.65625 -52 C 785.54249 -50.662641 786.78125 -48.75 786.78125 -48.75 L 786.21875 -17.875 L 785.65625 13.03125 L 769.40625 13 L 753.15625 13 L 739.21875 -12.03125 C 720.51995 -45.630097 719.33949 -48.046246 719.96875 -51.59375 C 721.3084 -59.145978 721.2727 -60.72196 719.65625 -63.3125 C 717.63572 -66.550643 713.46002 -68.649166 710.5 -67.90625 C 709.30036 -67.605157 707.09777 -66.129003 705.59375 -64.625 C 702.69134 -61.722575 702.59052 -60.729792 704.3125 -51.875 C 704.9286 -48.706887 702.65441 -44.113085 683.96875 -10.84375 L 670.5625 13.03125 L 618.71875 13.03125 L 602.34375 13.03125 L 601.84375 2.96875 C 602.04564 -16.857229 601.6208 -36.301874 602.40625 -53.0625 C 608.47739 -54.586018 610.20024 -62.473962 606.25 -67.3125 C 605.14977 -68.775488 602.68446 -69.442254 600.28125 -69.5625 z M 601.34375 -66.21875 C 602.30642 -65.981772 603.16133 -65.447564 603.78125 -64.5625 C 605.43432 -62.202397 605.33313 -60.30189 603.4375 -58.40625 C 600.2228 -55.191551 594.75 -57.284308 594.75 -61.71875 C 594.75 -64.959623 598.45573 -66.929685 601.34375 -66.21875 z M 787.15625 -64.84375 C 788.31181 -65.077287 789.75324 -64.788342 791.78125 -63.53125 C 792.96169 -62.041123 793.3693 -57.980731 792 -56.28125 C 790.61134 -54.55776 788.95725 -54.148527 786.75 -54.96875 C 782.82979 -56.425513 781.54529 -60.583521 784.25 -63.03125 C 785.14712 -63.84313 786.00069 -64.610213 787.15625 -64.84375 z M 711.90625 -63.375 C 712.53889 -63.387769 713.22889 -63.294364 714 -63.125 C 718.25276 -62.190931 718.82465 -56.940811 714.90625 -54.84375 C 710.33683 -52.398266 705.83445 -56.171647 707.90625 -60.71875 C 708.69527 -62.450477 710.00834 -63.336694 711.90625 -63.375 z "
       xlink:href="#path2997-1"
       style="fill:#aa0000;stroke:none"
       id="path3042"
       inkscape:href="#path2997-1"
       d="m 600.34375,-70.71875 c -1.29,-0.06455 -2.5778,0.01191 -3.6875,0.21875 -1.1097,0.206837 -2.03286,0.487721 -2.78125,1.09375 -1.96862,1.594123 -3.41858,4.109702 -3.5625,7.21875 -0.0978,2.113422 0.72217,4.537262 1.71875,6.4375 0.49829,0.950119 1.04829,1.759723 1.6875,2.34375 0.21092,0.192714 0.49934,0.306278 0.78125,0.4375 0.16406,25.17035 -1.11251,46.9055201 -0.1875,71.875 a 1.1490447,1.1490447 0 0 0 0.0937,0.375 c 0.28481,0.742196 1.03521,1.394763 1.9375,1.65625 0.90229,0.261487 2.02875,0.363139 3.71875,0.40625 3.38,0.08622 9.02152,-0.06475 18.78125,-0.0625 l 54.15625,0 a 1.1490447,1.1490447 0 0 0 0.90625,-0.46875 L 675.8125,18.25 c 1.1823,-1.576255 3.90607,-6.08267 8.125,-13.3125 4.21893,-7.2298304 9.87012,-17.091431 16.625,-29.0625 2.35967,-4.181818 4.75582,-8.261878 6.6875,-11.46875 1.92464,-3.195187 3.49181,-5.627869 3.875,-6.09375 0.001,-0.0017 -0.001,-0.0296 0,-0.03125 l 1.0625,-1.25 2.65625,4.1875 c 1.86713,2.931058 8.73219,14.662496 15.15625,25.9375 7.28521,12.78641041 11.88079,20.7487995 14.90625,25.65625 1.51273,2.453725 2.64966,4.138978 3.53125,5.3125 0.88159,1.173522 1.49371,1.845245 2.25,2.25 0.42745,0.228763 0.6184,0.226906 0.96875,0.28125 0.35035,0.05434 0.77506,0.112519 1.28125,0.15625 1.01239,0.08746 2.33595,0.155817 3.90625,0.21875 3.14059,0.125866 7.22437,0.190713 11.4375,0.21875 8.42626,0.05607 17.23597,-0.06546 20.40625,-0.5 1.68821,-0.231388 2.74798,-0.327115 3.65625,-1 0.45413,-0.336443 0.77796,-0.852825 0.96875,-1.34375 0.19079,-0.490925 0.27938,-0.977203 0.375,-1.5625 0.0518,-0.317333 0.0903,-0.665268 0.125,-1.28125 0.0347,-0.615982 0.0544,-1.44156 0.0937,-2.4375 0.0786,-1.991879 0.15938,-4.6951604 0.25,-7.9375 0.18124,-6.4846792 0.39729,-15.0901479 0.5625,-24.25 0.21765,-12.067355 0.43817,-20.470563 0.6875,-25.90625 0.12467,-2.717844 0.23508,-4.687391 0.375,-6 0.07,-0.656304 0.15446,-1.165762 0.21875,-1.46875 0.0146,-0.06872 0.0398,-0.07549 0.0625,-0.125 -0.006,0.03316 0.0571,-0.03318 0.4375,-0.125 0.48813,-0.11781 1.18414,-0.210776 2.03125,-0.3125 1.69423,-0.203448 3.98005,-0.357766 6.46875,-0.4375 4.97741,-0.159468 10.83932,-0.04081 14.875,0.375 3.97546,0.40961 8.09754,0.563825 10.875,2.59375 2.9445,2.15203 5.50754,5.739079 5.6875,9.15625 0.19547,3.711416 -2.10412,7.885877 -5.03125,10.5 -1.23354,1.101614 -3.62977,2.826513 -5.625,4.4375 -0.99762,0.805493 -1.89548,1.597753 -2.5625,2.3125 -0.33351,0.357374 -0.6311,0.692602 -0.84375,1.09375 -0.21265,0.401148 -0.41151,1.004095 -0.0625,1.65625 a 1.1490447,1.1490447 0 0 0 0.0312,0.09375 c 1.15412,1.80012 3.59737,4.18909 6.375,6.9375 2.77763,2.74841 5.86526,5.7807075 8.03125,8.375 2.04633,2.4509644 3.50132,5.34556405 3.875,8.34375 0.37368,2.998186 -0.28511,6.0981743 -2.5625,9.09375 a 1.1490447,1.1490447 0 0 0 -0.0937,0.09375 c 0.0997,-0.169915 0.098,-0.09896 -0.0625,-0.03125 -0.16051,0.06771 -0.41691,0.160546 -0.71875,0.21875 -0.60368,0.116408 -1.30747,0.154222 -1.71875,0.1875 -0.004,2.85e-4 -0.53946,0.03813 -1.25,0.03125 -0.71054,-0.0069 -1.66055,-0.04095 -2.78125,-0.0625 -2.24141,-0.04309 -5.18233,-0.1217 -8.1875,-0.1875 -6.01033,-0.131599 -12.31712,-0.25624 -14.59375,-0.1875 a 1.1490447,1.1490447 0 0 0 -1.0625,0.78125 c -0.58063,1.620121 -0.89696,3.541355 -0.78125,5.25 0.0579,0.854322 0.22271,1.662792 0.625,2.375 0.40229,0.712208 1.2207,1.350196 2.15625,1.375 2.74674,0.07284 10.30219,0.245717 17.25,0.28125 3.47391,0.01777 6.8098,-0.01456 9.3125,-0.09375 1.25135,-0.0396 2.27762,-0.07717 3.0625,-0.15625 0.39244,-0.03954 0.70835,-0.09079 1,-0.15625 0.14582,-0.03273 0.30153,-0.08493 0.46875,-0.15625 0.0167,-0.0071 0.0441,-0.05527 0.0625,-0.0625 3.27515,-1.081457 5.48404,-3.40411 6.875,-6.0625 1.40073,-2.677056 2.06642,-5.7013644 2.375,-8.4375 0.78922,-6.9976552 -2.5356,-14.1643147 -6.75,-19.5 -2.82339,-3.574542 -5.69762,-5.787992 -7.59375,-8.5625 1.41512,-2.189093 4.5006,-4.98229 6.5625,-7.6875 3.58411,-4.702343 4.88964,-10.076979 4,-15.28125 -0.77123,-4.511401 -3.85073,-8.553234 -7.46875,-11.125 -3.73111,-2.652095 -6.14158,-4.363953 -9.84375,-5.4375 -3.70217,-1.073547 -8.56248,-1.51364 -17.34375,-1.8125 l -12.1875,-0.4375 -3.78125,-3.5 c -1.59579,-1.495827 -2.82618,-2.458899 -4,-3.0625 -1.17382,-0.603601 -2.29841,-0.8125 -3.375,-0.8125 -3.80315,0 -7.5833,2.081456 -9.25,5.59375 -2.4625,5.189333 -0.35097,10.924193 4.03125,14.03125 1.45796,1.033704 2.38584,2.34349 2.625,2.6875 l -0.5625,30.46875 -0.53125,29.78125 -15.125,-0.03125 -15.59375,0 -13.59375,-24.4375 c -9.34871,-16.798175 -14.3203,-25.815045 -16.84375,-31 -1.26173,-2.592478 -1.90819,-4.201493 -2.1875,-5.3125 -0.27931,-1.111007 -0.23636,-1.696034 -0.0937,-2.5 0.67253,-3.791375 1.01693,-6.098044 0.96875,-7.9375 -0.0482,-1.839456 -0.57589,-3.181679 -1.4375,-4.5625 -1.13943,-1.826074 -2.83839,-3.290549 -4.6875,-4.21875 -1.84911,-0.928201 -3.86728,-1.370939 -5.71875,-0.90625 -0.86878,0.218051 -1.7371,0.738968 -2.6875,1.375 -0.9504,0.636032 -1.93259,1.401351 -2.75,2.21875 -1.49282,1.492824 -2.51715,2.839159 -2.71875,4.84375 -0.2016,2.004591 0.26167,4.498082 1.125,8.9375 0.11881,0.610943 0.10294,1.249781 -0.28125,2.53125 -0.38419,1.281469 -1.16199,3.143623 -2.5625,5.96875 -2.80103,5.650253 -8.03348,15.117667 -17.375,31.75 l -13.0625,23.28125 -51.1875,0 -15.28125,0 L 603,2.96875 c 2.2e-4,-0.021275 -2.2e-4,-0.041225 0,-0.0625 0.19801,-19.573493 -0.17904,-38.682036 0.5625,-55.21875 2.94184,-1.090643 4.91525,-3.521135 5.625,-6.34375 0.77867,-3.096698 0.16626,-6.628726 -2.03125,-9.34375 -0.009,-0.01211 -0.0221,-0.01924 -0.0312,-0.03125 -1.50111,-1.958866 -4.22119,-2.559406 -6.78125,-2.6875 z m -1.03125,5.59375 c 0.60838,-0.109351 1.20296,-0.103413 1.75,0.03125 0.72683,0.178922 1.32145,0.531047 1.78125,1.1875 0.73708,1.052334 0.97444,1.862419 0.9375,2.53125 -0.0369,0.668831 -0.33696,1.336953 -1.15625,2.15625 -1.28869,1.288689 -2.93398,1.463709 -4.3125,0.9375 -1.37852,-0.526209 -2.40625,-1.692932 -2.40625,-3.4375 0,-1.182527 0.62918,-2.1048 1.65625,-2.75 0.51354,-0.3226 1.14162,-0.546899 1.75,-0.65625 z m 188.0625,1.40625 c 0.74539,-0.150642 1.84428,0.04497 3.53125,1.03125 0.31036,0.449219 0.71545,1.593086 0.78125,2.78125 0.0687,1.241137 -0.22451,2.447981 -0.59375,2.90625 -0.58237,0.722794 -1.10296,1.072979 -1.6875,1.21875 -0.58454,0.145771 -1.2927,0.105737 -2.25,-0.25 -1.66394,-0.618327 -2.67547,-1.788641 -3.03125,-2.9375 -0.35578,-1.148859 -0.13903,-2.272789 0.90625,-3.21875 0.89525,-0.810184 1.55933,-1.37272 2.34375,-1.53125 z m -75.4375,1.5 c 0.50277,-0.01015 1.0952,0.06121 1.8125,0.21875 1.69639,0.372591 2.49064,1.488771 2.625,2.71875 0.13436,1.229979 -0.41299,2.58816 -2,3.4375 -1.92954,1.032661 -3.65719,0.702952 -4.71875,-0.1875 -1.06156,-0.890452 -1.57473,-2.340073 -0.71875,-4.21875 0.65093,-1.428658 1.44884,-1.937443 3,-1.96875 z" />
    <path
       style="fill:#aa0000;stroke:none"
       d="m 595.66358,-54.064011 c -1.18012,1.368948 -4.34779,-4.589777 -4.1872,-8.058579 0.12913,-2.789541 1.40043,-4.992141 3.12771,-6.390835 1.83837,-1.488655 9.43178,-1.72633 11.63224,1.199646 3.95024,4.838538 2.22659,12.734399 -3.84455,14.257917 -0.78545,16.760626 -0.3519,36.194884 -0.55379,56.0208627 l 0.51305,10.0596503 16.37309,0 51.82738,0 13.40487,-23.867002 c 18.68566,-33.269335 20.96555,-37.86675 20.34945,-41.034863 -1.72198,-8.854792 -1.62255,-9.845294 1.27986,-12.747719 1.50402,-1.504003 3.71609,-2.98091 4.91573,-3.282003 2.96002,-0.742916 7.13421,1.3483 9.15474,4.586443 1.61645,2.59054 1.65954,4.169684 0.31989,11.721912 -0.62926,3.547504 0.54257,5.956494 19.24137,39.555341 l 13.93169,25.033079 16.2486,0.01743 16.24862,0.01743 0.56232,-30.892371 0.56231,-30.892354 c 0,0 -1.22243,-1.894166 -3.10867,-3.231525 -3.99028,-2.829167 -5.89041,-7.945678 -3.67471,-12.614918 1.44682,-3.04894 4.86891,-4.934086 8.24339,-4.934086 1.89131,0 3.47394,0.643637 6.58468,3.559516 l 4.09499,3.838463 12.62387,0.429626 c 17.51553,0.59612 19.08815,1.730042 26.55062,7.03441 3.40003,2.416816 6.30016,6.259751 7.00309,10.371621 0.83667,4.894412 -0.35007,9.937746 -3.76147,14.413498 -2.08367,2.733766 -5.68555,5.77459 -7.09987,8.404571 2.02553,3.328765 5.20663,5.558468 8.11495,9.240538 4.08275,5.1690132 7.23472,12.116951 6.4965,18.6623875 -0.59814,5.3036565 -2.50051,11.6292835 -8.49988,13.5694735 -0.4945,0.928894 -25.23741,0.380346 -30.71377,0.235127 -2.10915,-0.05592 -1.97199,-4.546435 -0.92741,-7.461128 4.32581,-0.130612 25.50633,0.513469 26.85884,0.404027 0.78813,-0.06377 2.98393,-0.224904 3.41386,-0.957357 4.89392,-6.4372536 2.97106,-13.694731 -1.35319,-18.8740448 -4.45281,-5.3333182 -12.31952,-12.0998952 -14.29015,-15.1735602 -0.65075,-1.215993 6.17026,-5.743168 8.82528,-8.114246 3.14378,-2.807606 5.66144,-7.205906 5.43976,-11.415054 -0.20641,-3.919493 -2.9851,-7.722695 -6.15389,-10.038651 -3.17079,-2.31739 -7.53373,-2.414357 -11.44036,-2.816875 -8.25311,-0.850345 -23.55975,-0.415172 -24.87415,0.89779 -0.68637,0.685612 -1.11167,10.098735 -1.54713,34.24203 -0.33031,18.3130731 -0.78133,34.403113 -1.00229,35.755667 -0.36671,2.244759 -0.7195,2.502738 -4.04627,2.95871 -5.78679,0.793175 -35.72622,0.580076 -37.30623,-0.265518 -1.81031,-0.968846 -5.65595,-7.199819 -20.22321,-32.76708 -6.42838,-11.282587 -13.26443,-22.988506 -15.19119,-26.01317 l -3.50323,-5.499367 -2.06357,2.488216 c -1.13496,1.368523 -5.93345,9.346455 -10.66331,17.728743 -13.50621,23.9358419 -22.57559,39.474723 -24.66736,42.263503 l -1.92334,2.564227 -54.1527,-0.01108 c -19.54197,-0.0045 -22.66184,0.573972 -23.35995,-1.245267 -0.93662,-25.2829478 0.40246,-47.227289 0.19012,-72.93323 z m 7.77448,-4.354178 c 1.89563,-1.89564 2.00282,-3.776276 0.34975,-6.136379 -2.47969,-3.540258 -9.02868,-1.477835 -9.02868,2.843329 0,4.434442 5.46423,6.507749 8.67893,3.29305 z m 111.47872,3.571478 c 3.9184,-2.097061 3.33872,-7.352311 -0.91404,-8.28638 -3.08444,-0.677455 -5.03057,0.0901 -6.08259,2.399069 -2.0718,4.547103 2.42721,8.332795 6.99663,5.887311 z m 77.09017,-1.426452 c 1.3693,-1.699481 0.95585,-5.76693 -0.22459,-7.257057 -4.05602,-2.514184 -5.75314,-1.134823 -7.54738,0.488937 -2.70471,2.447729 -1.40236,6.631152 2.51785,8.087915 2.20725,0.820223 3.86546,0.403695 5.25412,-1.319795 z"
       id="path2997-1"
       inkscape:connector-curvature="0"
       sodipodi:nodetypes="sssccccccssssssscccccsssscsaascsacscscscsaaassssssscssscsccssssssssssssss" />
  </g>
</svg>
